<svg width="90" height="89" viewBox="0 0 90 89" fill="none" xmlns="http://www.w3.org/2000/svg">
<path d="M4.06641 3.7832H85.8269V84.7881H4.06641V3.7832Z" fill="url(#paint0_radial_167_586)"/>
<path d="M4.06641 3.78375H85.8269V84.7886H4.06641V3.78375ZM0.35083 88.5724H89.5604V0H0.35083V88.5724ZM63.462 42.6945C65.3555 42.6945 66.0343 42.6945 66.213 42.6217C66.213 42.3488 66.2844 42.1669 66.2844 41.985C66.2844 39.9476 65.3198 36.1639 61.4613 36.1639C57.8887 36.1639 56.3703 39.3473 55.9951 42.7127H63.462V42.6945ZM55.9237 47.8789C55.9951 52.9906 58.371 56.4287 64.0336 56.4287C66.2308 56.4287 68.1244 56.1195 70.0893 55.2645C70.3573 55.1554 70.5359 55.1917 70.5359 55.5374V60.2671C70.5359 60.6491 70.4287 60.831 70.1608 61.0311C68.1958 62.0134 65.7307 62.4682 62.6939 62.4682C52.8869 62.4682 49.2071 55.0826 49.2071 46.8784C49.2071 37.9466 53.7444 30.6338 61.7293 30.6338C69.8392 30.6338 72.6616 37.5646 72.6616 43.2038C72.6616 45.0229 72.5545 46.4964 72.358 47.2241C72.2865 47.5333 72.1793 47.6424 71.8757 47.7152C71.1254 47.8244 68.9461 47.9881 65.6771 47.9881H55.9416V47.8789H55.9237ZM35.9882 44.0224C34.9521 39.8203 32.4155 30.6702 31.4866 26.2315H31.4152C30.6292 30.652 28.5928 38.1467 27.0744 44.0224H35.9882ZM25.556 50.1528L22.6264 61.4677C22.555 61.7769 22.4478 61.8861 22.0727 61.8861H16.5886C16.2135 61.8861 16.142 61.7769 16.2135 61.3221L26.7707 23.7394C26.9493 23.0663 27.0744 22.5206 27.1458 20.6287C27.1458 20.3558 27.253 20.2467 27.4495 20.2467H35.2558C35.5238 20.2467 35.6309 20.3194 35.7024 20.6287L47.5101 61.3949C47.5815 61.7042 47.5101 61.8861 47.2064 61.8861H41.0793C40.7756 61.8861 40.5969 61.7769 40.5255 61.5041L37.4709 50.1528H25.556Z" fill="#D8A1FF"/>
<defs>
<radialGradient id="paint0_radial_167_586" cx="0" cy="0" r="1" gradientUnits="userSpaceOnUse" gradientTransform="translate(31.0189 21.9444) scale(62.1407 61.2673)">
<stop stop-color="#442F55" stop-opacity="0.98"/>
<stop offset="1" stop-color="#12002C"/>
</radialGradient>
</defs>
</svg>
