<svg width="90" height="89" viewBox="0 0 90 89" fill="none" xmlns="http://www.w3.org/2000/svg">
<path d="M3.95996 3.7832H85.7204V84.7881H3.95996V3.7832Z" fill="url(#paint0_radial_167_574)"/>
<path d="M3.95996 3.78375H85.7204V84.7886H3.95996V3.78375ZM0.244385 88.5724H89.4539V0H0.244385V88.5724ZM58.6753 31.5797C58.6753 31.2705 58.7825 31.1249 59.1219 31.1249H64.9632C65.2669 31.1249 65.4098 31.2341 65.4098 31.5797V61.4495C65.4098 61.7587 65.3384 61.9043 64.9632 61.9043H59.1934C58.8182 61.9043 58.7111 61.7224 58.7111 61.4131V31.5797H58.6753ZM58.2645 22.9753C58.2645 20.5559 59.9436 19.1188 62.0515 19.1188C64.3202 19.1188 65.8385 20.6651 65.8385 22.9753C65.8385 25.4675 64.2487 26.8319 61.9801 26.8319C59.8365 26.85 58.2645 25.4857 58.2645 22.9753ZM41.5444 44.0224C40.5083 39.8203 38.0432 30.6702 37.1143 26.2315H37.0428C36.2569 30.652 34.2919 38.1467 32.7378 44.0224H41.5444ZM31.2194 50.1528L28.2898 61.5041C28.2184 61.8133 28.1112 61.8861 27.736 61.8861H22.2699C21.8947 61.8861 21.8233 61.7769 21.8947 61.3221L32.452 23.703C32.6306 23.0299 32.7556 22.4114 32.8271 20.5559C32.8271 20.2831 32.9343 20.1739 33.1308 20.1739H40.937C41.205 20.1739 41.3122 20.2467 41.3836 20.5559L53.2092 61.3949C53.2806 61.7042 53.2092 61.8861 52.9055 61.8861H46.7426C46.439 61.8861 46.2603 61.8133 46.1889 61.5404L43.1342 50.1528H31.2194Z" fill="#FF7F18"/>
<defs>
<radialGradient id="paint0_radial_167_574" cx="0" cy="0" r="1" gradientUnits="userSpaceOnUse" gradientTransform="translate(30.9146 21.9605) scale(62.1406 61.2673)">
<stop stop-color="#423325" stop-opacity="0.98"/>
<stop offset="1" stop-color="#1C0A00"/>
</radialGradient>
</defs>
</svg>
