<?xml version="1.0" encoding="utf-8"?>
<!-- Generator: Adobe Illustrator 26.0.3, SVG Export Plug-In . SVG Version: 6.00 Build 0)  -->
<svg height="40" width="40" version="1.1" id="Слой_1" xmlns="http://www.w3.org/2000/svg" xmlns:xlink="http://www.w3.org/1999/xlink" x="0px" y="0px"
	 viewBox="0 0 40.1 40.2" style="enable-background:new 0 0 40.1 40.2;" xml:space="preserve">
<style type="text/css">
	.st0{clip-path:url(#SVGID_00000070800829578383471080000017289463191639687336_);}
	.st1{fill:#070707;stroke:#070707;stroke-width:0.5;}
</style>
<g>
	<g>
		<defs>
			<rect id="SVGID_1_" y="0.2" width="40.1" height="40"/>
		</defs>
		<clipPath id="SVGID_00000122706566390456770110000010946814672024042421_">
			<use xlink:href="#SVGID_1_"  style="overflow:visible;"/>
		</clipPath>
		<g style="clip-path:url(#SVGID_00000122706566390456770110000010946814672024042421_);">
			<path class="st1" d="M34.2,0.2H5.9C2.6,0.2,0,2.8,0,6.1v28.3c0,3.2,2.6,5.9,5.9,5.9h28.4c3.2,0,5.9-2.6,5.9-5.9V6.1
				C40.1,2.8,37.5,0.2,34.2,0.2z M37.8,34.4c0,1.9-1.6,3.5-3.5,3.5H5.9c-1.9,0-3.5-1.6-3.5-3.5V6.1c0-1.9,1.6-3.5,3.5-3.5h28.4
				c1.9,0,3.5,1.6,3.5,3.5V34.4z"/>
			<path class="st1" d="M18.9,16.7c0-2.6-2.1-4.7-4.7-4.7H7.1v16.4h7.1c2.6,0,4.7-2.1,4.7-4.7c0-1.4-0.6-2.7-1.6-3.5
				C18.3,19.4,18.9,18.1,18.9,16.7z M16.5,23.7c0,1.3-1.1,2.3-2.4,2.3H9.5v-4.7h4.7C15.5,21.4,16.5,22.4,16.5,23.7z M9.5,19v-4.7
				h4.7c1.3,0,2.4,1.1,2.4,2.3S15.5,19,14.2,19H9.5z"/>
			<path class="st1" d="M27.1,16.7c-3.2,0-5.9,2.6-5.9,5.9c0,3.2,2.6,5.9,5.9,5.9c2.1,0,4-1.1,5.1-2.9l-2-1.2
				c-0.6,1.1-1.8,1.8-3.1,1.8c-1.5,0-2.8-1-3.3-2.3H33v-1.2C33,19.3,30.3,16.7,27.1,16.7z M23.8,21.4c0.5-1.4,1.8-2.3,3.3-2.3
				c1.5,0,2.8,1,3.3,2.3H23.8z"/>
			<path class="st1" d="M22.4,12h9.4v2.3h-9.4V12z"/>
		</g>
	</g>
</g>
</svg>
