<svg width="40" height="40" viewBox="0 0 40 40" fill="none" xmlns="http://www.w3.org/2000/svg">
<path d="M30.6216 7.11869L30.9273 6.73445L30.5487 6.42181C27.6333 4.01466 23.9306 2.57677 19.8798 2.57677C18.4606 2.57677 17.0847 2.77559 15.7819 3.1013L15.0548 3.28309L15.5019 3.88464C16.8925 5.75551 18.8902 8.58108 21.2826 13.0064L21.4892 13.3886L21.8965 13.2373C26.4238 11.5563 29.1367 8.98483 30.6216 7.11869ZM13.3213 4.36091L13.0763 4.03813L12.7097 4.21102C8.21361 6.33185 4.80724 10.3827 3.46258 15.3296L3.29651 15.9406L3.92935 15.9605C6.40525 16.0385 12.3235 15.9218 18.8811 14.165L19.4996 13.9993L19.1889 13.4394C16.6455 8.85573 14.5065 5.92219 13.3213 4.36091ZM32.7751 8.6199L32.3874 8.15926L32.0058 8.62499C30.3498 10.6462 27.4745 13.2715 22.9222 15.0529L22.4159 15.251L22.6556 15.7389C23.6371 17.7371 24.5893 19.8664 25.4569 22.1658L25.5998 22.5447L26.0001 22.4836C29.2934 21.9807 32.3376 21.9807 34.637 22.1608C35.1961 22.2072 35.5568 22.2593 35.9767 22.3199C36.0652 22.3327 36.1563 22.3459 36.2524 22.3594L36.7644 22.4317L36.8194 21.9175C36.8868 21.2869 36.9256 20.6536 36.9256 19.999C36.9256 15.6455 35.3482 11.677 32.7751 8.6199ZM20.6281 16.2472L20.443 15.876L20.044 15.9894C12.3307 18.1807 5.53604 18.1138 3.41999 18.0284L2.93815 18.0089L2.90128 18.4897L2.8987 18.5233C2.86214 18.9999 2.82461 19.4889 2.82461 20.0086C2.82461 25.2424 5.08898 29.9144 8.65992 33.1113L9.03272 33.4451L9.36619 33.072C10.2613 32.0707 11.4619 30.7954 12.9215 29.4642L12.9235 29.4624C15.6698 26.9307 19.2032 24.2519 23.0522 23.0831L23.5691 22.9261L23.3727 22.4229C22.5112 20.2152 21.5836 18.163 20.6281 16.2472ZM30.1176 24.1434L30.1122 24.1436C29.1011 24.1924 28.0248 24.2899 26.9303 24.4359L26.3355 24.5152L26.5208 25.0859C27.4446 27.9298 28.2087 30.9423 28.7023 34.0761L28.8266 34.865L29.4819 34.4087C32.668 32.1901 35.078 28.8931 36.2007 25.0227L36.366 24.4531L35.7766 24.3866C34.3166 24.2217 32.4653 24.0555 30.1176 24.1434ZM24.4616 25.3287L24.308 24.8753L23.8484 25.009C20.467 25.9929 16.9301 28.5441 14.2497 31.0044C12.9545 32.183 11.9085 33.3018 11.069 34.2183L10.6563 34.6688L11.1796 34.9842C13.7251 36.5186 16.681 37.4213 19.8704 37.4213C22.2641 37.4213 24.5218 36.9156 26.5837 36.0246L26.9317 35.8741L26.8808 35.4984C26.3965 31.9246 25.5423 28.5185 24.4616 25.3287ZM0.825684 19.999C0.825684 9.24581 9.39293 0.5 19.8798 0.5C30.3667 0.5 38.9339 9.24581 38.9339 19.999C38.9339 30.7522 30.3667 39.498 19.8798 39.498C9.39293 39.498 0.825684 30.7522 0.825684 19.999Z" fill="#070707" stroke="#070707"/>
</svg>
