<svg width="59" height="89" viewBox="0 0 59 89" fill="none" xmlns="http://www.w3.org/2000/svg">
<path d="M15.0865 88.9913C23.125 88.9913 29.6451 82.3515 29.6451 74.1655V59.3398H15.0865C7.04796 59.3398 0.527832 65.9796 0.527832 74.1655C0.527832 82.3515 7.04796 88.9913 15.0865 88.9913Z" fill="#0ACF83"/>
<path d="M0.527832 44.4956C0.527832 36.3097 7.04796 29.6699 15.0865 29.6699H29.6451V59.3395H15.0865C7.04796 59.3213 0.527832 52.6816 0.527832 44.4956Z" fill="#A259FF"/>
<path d="M0.527832 14.8257C0.527832 6.63973 7.04796 0 15.0865 0H29.6451V29.6696H15.0865C7.04796 29.6696 0.527832 23.0117 0.527832 14.8257Z" fill="#F24E1E"/>
<path d="M29.6631 0H44.2217C52.2602 0 58.7804 6.63973 58.7804 14.8257C58.7804 23.0117 52.2602 29.6514 44.2217 29.6514H29.6631V0V0Z" fill="#FF7262"/>
<path d="M58.7804 44.4956C58.7804 52.6816 52.2602 59.3213 44.2217 59.3213C36.1832 59.3213 29.6631 52.6816 29.6631 44.4956C29.6631 36.3097 36.1832 29.6699 44.2217 29.6699C52.2602 29.6699 58.7804 36.3097 58.7804 44.4956Z" fill="#1ABCFE"/>
</svg>
