<svg width="40" height="40" viewBox="0 0 40 40" fill="none" xmlns="http://www.w3.org/2000/svg">
<path d="M12.1243 0.50961H12.6243V0.5H28.529C34.4936 0.5 39.3761 5.48469 39.3761 11.612V28.386C39.3761 34.5136 34.4934 39.498 28.5384 39.498H12.1243C6.15835 39.498 1.26782 34.5216 1.26782 28.4052V11.6216C1.26782 5.49485 6.15915 0.50961 12.1243 0.50961ZM3.27615 11.6303V11.6312V28.4149C3.27615 33.401 7.20371 37.4316 12.1243 37.4316H28.5384C33.4416 37.4316 37.3678 33.3995 37.3678 28.3956V11.6216C37.3678 6.6174 33.4413 2.58565 28.529 2.58565H12.1243C7.21149 2.58565 3.28607 6.61773 3.27615 11.6303ZM31.3605 7.6997C31.3605 7.10977 31.8145 6.66168 32.3647 6.66168C32.9148 6.66168 33.3688 7.10977 33.3688 7.6997C33.3688 8.28963 32.9148 8.73772 32.3647 8.73772C31.8145 8.73772 31.3605 8.28963 31.3605 7.6997ZM10.3022 20.0038C10.3022 14.3481 14.8269 9.73772 20.3314 9.73772C25.8358 9.73772 30.3605 14.3481 30.3605 20.0038C30.3605 25.6596 25.8358 30.2699 20.3314 30.2699C14.8269 30.2699 10.3022 25.6596 10.3022 20.0038ZM28.3522 20.0038C28.3522 15.4702 24.792 11.8137 20.3314 11.8137C15.8707 11.8137 12.3105 15.4702 12.3105 20.0038C12.3105 24.5374 15.8707 28.1939 20.3314 28.1939C24.792 28.1939 28.3522 24.5374 28.3522 20.0038Z" fill="#070707" stroke="#070707"/>
</svg>
