<svg width="90" height="89" viewBox="0 0 90 89" fill="none" xmlns="http://www.w3.org/2000/svg">
<path d="M3.97607 3.7793H85.6415V84.6339H3.97607V3.7793Z" fill="url(#paint0_radial_167_561)"/>
<path d="M3.97606 3.77927H85.6414V84.6338H3.97606V3.77927ZM0.263184 88.4131H89.3364V0H0.263184V88.4131ZM60.3296 36.2846C57.4022 36.2846 56.4025 37.7927 56.4025 39.0464C56.4025 40.4091 57.063 41.3539 61.0079 43.4253C66.8271 46.296 68.6479 49.0578 68.6479 53.0915C68.6479 59.1419 64.1139 62.3943 57.9912 62.3943C54.7603 62.3943 51.9757 61.722 50.387 60.7772C50.1192 60.6682 50.0835 60.4683 50.0835 60.1776V54.5995C50.0835 54.218 50.262 54.109 50.5298 54.2906C52.8682 55.8351 55.5457 56.5255 57.9912 56.5255C60.9187 56.5255 62.1504 55.2718 62.1504 53.582C62.1504 52.2193 61.2935 51.0201 57.545 49.0396C52.2791 46.4777 50.0835 43.8795 50.0835 39.5188C50.0835 34.6494 53.8321 30.5975 60.3296 30.5975C63.5248 30.5975 65.7561 31.0881 66.97 31.6514C67.2734 31.8331 67.3448 32.142 67.3448 32.4145V37.5928C67.3448 37.9017 67.1663 38.0834 66.7915 37.9744C65.1492 36.9205 62.7394 36.2846 60.3296 36.2846ZM28.4132 40.7725C29.27 40.8452 29.9305 40.8452 31.412 40.8452C35.7497 40.8452 39.8374 39.3008 39.8374 33.2866C39.8374 28.4899 36.91 26.0733 31.9654 26.0733C30.4838 26.0733 29.0737 26.146 28.3953 26.1823L28.4132 40.7725ZM21.7907 20.7133C21.7907 20.4408 22.3084 20.2591 22.6118 20.2591C24.9859 20.15 28.5203 20.0774 32.1796 20.0774C42.4614 20.0774 46.4777 25.8189 46.4777 33.1413C46.4777 42.7348 39.6411 46.8593 31.2514 46.8593C29.8412 46.8593 29.3593 46.7866 28.3596 46.7866V61.2859C28.3596 61.5948 28.2525 61.7402 27.9134 61.7402H22.237C21.9335 61.7402 21.7907 61.6311 21.7907 61.2859V20.7133Z" fill="#31C5F0"/>
<defs>
<radialGradient id="paint0_radial_167_561" cx="0" cy="0" r="1" gradientUnits="userSpaceOnUse" gradientTransform="translate(30.8805 21.9191) scale(62.0565 61.1565)">
<stop stop-color="#34364E" stop-opacity="0.98"/>
<stop offset="1" stop-color="#0C0824"/>
</radialGradient>
</defs>
</svg>
