<svg width="22" height="21" viewBox="0 0 22 21" fill="none" xmlns="http://www.w3.org/2000/svg">
<path d="M10.2237 1.2131C10.5236 0.292819 11.8255 0.29282 12.1253 1.2131L13.8764 6.58749C14.0105 6.99912 14.3943 7.2777 14.8272 7.2777H20.488C21.4574 7.2777 21.8597 8.51873 21.0747 9.08749L16.4998 12.4021C16.1484 12.6568 16.0013 13.1091 16.1357 13.5217L17.8843 18.8884C18.1843 19.8092 17.131 20.5762 16.3468 20.0079L11.7612 16.6856C11.4112 16.432 10.9378 16.432 10.5878 16.6856L6.00225 20.0079C5.21799 20.5762 4.1647 19.8092 4.46472 18.8884L6.2133 13.5217C6.34775 13.1091 6.20067 12.6568 5.84921 12.4021L1.27434 9.08749C0.48933 8.51873 0.891661 7.2777 1.86106 7.2777H7.52181C7.95474 7.2777 8.3385 6.99912 8.47262 6.58749L10.2237 1.2131Z" fill="#E5E5E5"/>
</svg>
