<svg width="22" height="21" viewBox="0 0 22 21" fill="none" xmlns="http://www.w3.org/2000/svg">
<path d="M9.83528 1.2131C10.1351 0.292819 11.437 0.29282 11.7369 1.2131L13.488 6.58749C13.6221 6.99912 14.0059 7.2777 14.4388 7.2777H20.0995C21.0689 7.2777 21.4713 8.51873 20.6863 9.08749L16.1114 12.4021C15.7599 12.6568 15.6129 13.1091 15.7473 13.5217L17.4959 18.8884C17.7959 19.8092 16.7426 20.5762 15.9584 20.0079L11.3728 16.6856C11.0228 16.432 10.5494 16.432 10.1994 16.6856L5.61382 20.0079C4.82956 20.5762 3.77627 19.8092 4.0763 18.8884L5.82487 13.5217C5.95932 13.1091 5.81224 12.6568 5.46078 12.4021L0.885909 9.08749C0.100903 8.51873 0.503233 7.2777 1.47263 7.2777H7.13338C7.56631 7.2777 7.95007 6.99912 8.08419 6.58749L9.83528 1.2131Z" fill="#070707"/>
</svg>
